# xmcd
#
# Track frame offsets:
#	150
#	20322
#	45734
#	56923
#
# Disc length: 952 seconds
#
# Revision: 1
# Processed by: cddbd v1.5PL3 Copyright (c) Steve Scherf et al.
# Submitted via: CDex 1.50Beta5
#
DISCID=2e03b604
DTITLE=桑田佳祐 - 波乗りジョニー
DYEAR=1900
DGENRE=Rock
TTITLE0=波乗りジョニー
TTITLE1=黄昏のサマー・ホリデイ
TTITLE2=MUSIC TIGER
TTITLE3=PRIDEの唄　〜茅ヶ崎はありがとう〜
EXTD=
EXTT0=
EXTT1=
EXTT2=
EXTT3=
PLAYORDER=
